<svg width="21" height="21" viewBox="0 0 21 21" fill="none" xmlns="http://www.w3.org/2000/svg">
<path d="M2.29791 6.0615C2.29791 7.52817 2.76458 8.6615 3.76458 9.2615C4.56458 9.79483 5.49791 9.8615 5.96458 9.8615C6.09791 9.8615 6.16458 9.8615 6.23125 9.8615C6.23125 9.8615 6.09791 10.8615 6.83125 11.8615H6.76458C5.49791 11.8615 1.29791 12.1282 1.29791 15.5948C1.29791 19.1282 5.16458 19.2615 5.96458 19.2615C6.03125 19.2615 6.03125 19.2615 6.03125 19.2615C6.03125 19.2615 6.09791 19.2615 6.16458 19.2615C6.63125 19.2615 7.96458 19.1948 9.16458 18.5948C10.6979 17.8615 11.4979 16.5282 11.4979 14.7282C11.4979 12.9948 10.2979 11.9282 9.43125 11.1282C8.89791 10.6615 8.43125 10.2615 8.43125 9.8615C8.43125 9.4615 8.76458 9.12817 9.16458 8.79483C9.83125 8.19483 10.4979 7.32817 10.4979 5.6615C10.4979 4.19483 10.2979 3.19483 9.16458 2.59483C9.36458 2.52817 9.83125 2.4615 10.0312 2.4615C10.6312 2.39483 11.5646 2.2615 11.5646 1.79483V1.6615H6.96458C6.89791 1.6615 2.29791 1.8615 2.29791 6.0615ZM9.76458 15.0615C9.83125 16.4615 8.63125 17.5282 6.83125 17.6615C4.96458 17.7948 3.49791 16.9948 3.43125 15.5948C3.36458 14.9282 3.69791 14.2615 4.29791 13.7282C4.89791 13.1948 5.69791 12.8615 6.56458 12.7948C6.69791 12.7948 6.76458 12.7948 6.89791 12.7948C8.49791 12.7282 9.63125 13.7282 9.76458 15.0615ZM8.56458 5.0615C9.03125 6.6615 8.36458 8.32817 7.23125 8.59483C7.09791 8.6615 6.96458 8.6615 6.83125 8.6615C5.83125 8.6615 4.83125 7.6615 4.49791 6.2615C4.29791 5.52817 4.29791 4.8615 4.56458 4.19483C4.76458 3.52817 5.23125 3.12817 5.69791 2.99483C5.83125 2.92817 5.96458 2.92817 6.09791 2.92817C7.29791 2.92817 8.03125 3.39483 8.56458 5.0615ZM16.2979 8.4615V5.4615H14.2979V8.4615H11.2979V10.4615H14.2979V13.4615H16.2979V10.4615H19.2979V8.4615H16.2979Z" fill="black"/>
</svg>
